<?xml version="1.0" encoding="UTF-8" standalone="no"?>
<!-- Created with Inkscape (http://www.inkscape.org/) -->

<svg
   width="210mm"
   height="297mm"
   viewBox="0 0 210 297"
   version="1.1"
   id="svg5"
   inkscape:version="1.1 (1:1.1+202105261517+ce6663b3b7)"
   sodipodi:docname="paper_simple_example_paths.svg"
   xmlns:inkscape="http://www.inkscape.org/namespaces/inkscape"
   xmlns:sodipodi="http://sodipodi.sourceforge.net/DTD/sodipodi-0.dtd"
   xmlns="http://www.w3.org/2000/svg"
   xmlns:svg="http://www.w3.org/2000/svg">
  <sodipodi:namedview
     id="namedview7"
     pagecolor="#ffffff"
     bordercolor="#666666"
     borderopacity="1.0"
     inkscape:pageshadow="2"
     inkscape:pageopacity="0.0"
     inkscape:pagecheckerboard="0"
     inkscape:document-units="mm"
     showgrid="false"
     inkscape:zoom="1.5037598"
     inkscape:cx="284.28742"
     inkscape:cy="234.74493"
     inkscape:window-width="1920"
     inkscape:window-height="1163"
     inkscape:window-x="1920"
     inkscape:window-y="0"
     inkscape:window-maximized="1"
     inkscape:current-layer="g33" />
  <defs
     id="defs2">
    <clipPath
       clipPathUnits="userSpaceOnUse"
       id="clipPath179">
      <path
         d="M 540,360 H 3888 V 2534 H 540 Z"
         id="path177" />
    </clipPath>
  </defs>
  <g
     inkscape:label="Layer 1"
     inkscape:groupmode="layer"
     id="layer1">
    <g
       id="g33"
       transform="matrix(0.03527778,0,0,-0.03527778,8.382239,116.5659)"
       style="opacity:0.86">
      <path
         d="M 692.184,360 V 325"
         style="fill:#000000;fill-opacity:1;fill-rule:nonzero;stroke:none"
         id="path37"
         inkscape:export-filename="/home/hardik/Desktop/Research/Safe-Learning-DASC/Untitled Folder/paths_example1.png"
         inkscape:export-xdpi="96"
         inkscape:export-ydpi="96" />
      <path
         d="M 692.184,360 V 325"
         style="fill:none;stroke:#000000;stroke-width:8;stroke-linecap:butt;stroke-linejoin:round;stroke-miterlimit:10;stroke-dasharray:none;stroke-opacity:1"
         id="path39"
         inkscape:export-filename="/home/hardik/Desktop/Research/Safe-Learning-DASC/Untitled Folder/paths_example1.png"
         inkscape:export-xdpi="96"
         inkscape:export-ydpi="96" />
      <g
         id="g41"
         transform="scale(10)"
         inkscape:export-filename="/home/hardik/Desktop/Research/Safe-Learning-DASC/Untitled Folder/paths_example1.png"
         inkscape:export-xdpi="96"
         inkscape:export-ydpi="96">
        <text
           transform="matrix(1,0,0,-1,61.2652,21.4063)"
           style="font-variant:normal;font-weight:normal;font-size:10px;font-family:Arial;-inkscape-font-specification:Arial;writing-mode:lr-tb;fill:#000000;fill-opacity:1;fill-rule:nonzero;stroke:none"
           id="text45"><tspan
             x="0 6.362112 9.5410194"
             y="0"
             sodipodi:role="line"
             id="tspan43">0.0</tspan></text>
      </g>
      <path
         d="M 1277.5,360 V 325"
         style="fill:#000000;fill-opacity:1;fill-rule:nonzero;stroke:none"
         id="path47"
         inkscape:export-filename="/home/hardik/Desktop/Research/Safe-Learning-DASC/Untitled Folder/paths_example1.png"
         inkscape:export-xdpi="96"
         inkscape:export-ydpi="96" />
      <path
         d="M 1277.5,360 V 325"
         style="fill:none;stroke:#000000;stroke-width:8;stroke-linecap:butt;stroke-linejoin:round;stroke-miterlimit:10;stroke-dasharray:none;stroke-opacity:1"
         id="path49"
         inkscape:export-filename="/home/hardik/Desktop/Research/Safe-Learning-DASC/Untitled Folder/paths_example1.png"
         inkscape:export-xdpi="96"
         inkscape:export-ydpi="96" />
      <g
         id="g51"
         transform="scale(10)"
         inkscape:export-filename="/home/hardik/Desktop/Research/Safe-Learning-DASC/Untitled Folder/paths_example1.png"
         inkscape:export-xdpi="96"
         inkscape:export-ydpi="96">
        <text
           transform="matrix(1,0,0,-1,119.796,21.4063)"
           style="font-variant:normal;font-weight:normal;font-size:10px;font-family:Arial;-inkscape-font-specification:Arial;writing-mode:lr-tb;fill:#000000;fill-opacity:1;fill-rule:nonzero;stroke:none"
           id="text55"><tspan
             x="0 6.3625026 9.5410128"
             y="0"
             sodipodi:role="line"
             id="tspan53">0.2</tspan></text>
      </g>
      <path
         d="M 1862.81,360 V 325"
         style="fill:#000000;fill-opacity:1;fill-rule:nonzero;stroke:none"
         id="path57"
         inkscape:export-filename="/home/hardik/Desktop/Research/Safe-Learning-DASC/Untitled Folder/paths_example1.png"
         inkscape:export-xdpi="96"
         inkscape:export-ydpi="96" />
      <path
         d="M 1862.81,360 V 325"
         style="fill:none;stroke:#000000;stroke-width:8;stroke-linecap:butt;stroke-linejoin:round;stroke-miterlimit:10;stroke-dasharray:none;stroke-opacity:1"
         id="path59"
         inkscape:export-filename="/home/hardik/Desktop/Research/Safe-Learning-DASC/Untitled Folder/paths_example1.png"
         inkscape:export-xdpi="96"
         inkscape:export-ydpi="96" />
      <g
         id="g61"
         transform="scale(10)"
         inkscape:export-filename="/home/hardik/Desktop/Research/Safe-Learning-DASC/Untitled Folder/paths_example1.png"
         inkscape:export-xdpi="96"
         inkscape:export-ydpi="96">
        <text
           transform="matrix(1,0,0,-1,178.328,21.4063)"
           style="font-variant:normal;font-weight:normal;font-size:10px;font-family:Arial;-inkscape-font-specification:Arial;writing-mode:lr-tb;fill:#000000;fill-opacity:1;fill-rule:nonzero;stroke:none"
           id="text65"><tspan
             x="0 6.362112 9.5410128"
             y="0"
             sodipodi:role="line"
             id="tspan63">0.4</tspan></text>
      </g>
      <path
         d="M 2448.13,360 V 325"
         style="fill:#000000;fill-opacity:1;fill-rule:nonzero;stroke:none"
         id="path67"
         inkscape:export-filename="/home/hardik/Desktop/Research/Safe-Learning-DASC/Untitled Folder/paths_example1.png"
         inkscape:export-xdpi="96"
         inkscape:export-ydpi="96" />
      <path
         d="M 2448.13,360 V 325"
         style="fill:none;stroke:#000000;stroke-width:8;stroke-linecap:butt;stroke-linejoin:round;stroke-miterlimit:10;stroke-dasharray:none;stroke-opacity:1"
         id="path69"
         inkscape:export-filename="/home/hardik/Desktop/Research/Safe-Learning-DASC/Untitled Folder/paths_example1.png"
         inkscape:export-xdpi="96"
         inkscape:export-ydpi="96" />
      <g
         id="g71"
         transform="scale(10)"
         inkscape:export-filename="/home/hardik/Desktop/Research/Safe-Learning-DASC/Untitled Folder/paths_example1.png"
         inkscape:export-xdpi="96"
         inkscape:export-ydpi="96">
        <text
           transform="matrix(1,0,0,-1,236.859,21.4063)"
           style="font-variant:normal;font-weight:normal;font-size:10px;font-family:Arial;-inkscape-font-specification:Arial;writing-mode:lr-tb;fill:#000000;fill-opacity:1;fill-rule:nonzero;stroke:none"
           id="text75"><tspan
             x="0 6.3624902 9.5410013"
             y="0"
             sodipodi:role="line"
             id="tspan73">0.6</tspan></text>
      </g>
      <path
         d="M 3033.44,360 V 325"
         style="fill:#000000;fill-opacity:1;fill-rule:nonzero;stroke:none"
         id="path77"
         inkscape:export-filename="/home/hardik/Desktop/Research/Safe-Learning-DASC/Untitled Folder/paths_example1.png"
         inkscape:export-xdpi="96"
         inkscape:export-ydpi="96" />
      <path
         d="M 3033.44,360 V 325"
         style="fill:none;stroke:#000000;stroke-width:8;stroke-linecap:butt;stroke-linejoin:round;stroke-miterlimit:10;stroke-dasharray:none;stroke-opacity:1"
         id="path79"
         inkscape:export-filename="/home/hardik/Desktop/Research/Safe-Learning-DASC/Untitled Folder/paths_example1.png"
         inkscape:export-xdpi="96"
         inkscape:export-ydpi="96" />
      <g
         id="g81"
         transform="scale(10)"
         inkscape:export-filename="/home/hardik/Desktop/Research/Safe-Learning-DASC/Untitled Folder/paths_example1.png"
         inkscape:export-xdpi="96"
         inkscape:export-ydpi="96">
        <text
           transform="matrix(1,0,0,-1,295.391,21.4063)"
           style="font-variant:normal;font-weight:normal;font-size:10px;font-family:Arial;-inkscape-font-specification:Arial;writing-mode:lr-tb;fill:#000000;fill-opacity:1;fill-rule:nonzero;stroke:none"
           id="text85"><tspan
             x="0 6.3620996 9.5410013"
             y="0"
             sodipodi:role="line"
             id="tspan83">0.8</tspan></text>
      </g>
      <path
         d="M 3618.76,360 V 325"
         style="fill:#000000;fill-opacity:1;fill-rule:nonzero;stroke:none"
         id="path87"
         inkscape:export-filename="/home/hardik/Desktop/Research/Safe-Learning-DASC/Untitled Folder/paths_example1.png"
         inkscape:export-xdpi="96"
         inkscape:export-ydpi="96" />
      <path
         d="M 3618.76,360 V 325"
         style="fill:none;stroke:#000000;stroke-width:8;stroke-linecap:butt;stroke-linejoin:round;stroke-miterlimit:10;stroke-dasharray:none;stroke-opacity:1"
         id="path89"
         inkscape:export-filename="/home/hardik/Desktop/Research/Safe-Learning-DASC/Untitled Folder/paths_example1.png"
         inkscape:export-xdpi="96"
         inkscape:export-ydpi="96" />
      <g
         id="g91"
         transform="scale(10)"
         inkscape:export-filename="/home/hardik/Desktop/Research/Safe-Learning-DASC/Untitled Folder/paths_example1.png"
         inkscape:export-xdpi="96"
         inkscape:export-ydpi="96">
        <text
           transform="matrix(1,0,0,-1,353.922,21.4063)"
           style="font-variant:normal;font-weight:normal;font-size:10px;font-family:Arial;-inkscape-font-specification:Arial;writing-mode:lr-tb;fill:#000000;fill-opacity:1;fill-rule:nonzero;stroke:none"
           id="text97"><tspan
             x="0 6.3624902 9.5410013"
             y="0"
             sodipodi:role="line"
             id="tspan93">1.0</tspan><tspan
             x="-143.827 -139.9059 -137.12778 -127.38637"
             y="13.6719"
             sodipodi:role="line"
             id="tspan95">time</tspan></text>
      </g>
      <path
         d="M 540,458.836 H 505"
         style="fill:#000000;fill-opacity:1;fill-rule:nonzero;stroke:none"
         id="path99"
         inkscape:export-filename="/home/hardik/Desktop/Research/Safe-Learning-DASC/Untitled Folder/paths_example1.png"
         inkscape:export-xdpi="96"
         inkscape:export-ydpi="96" />
      <path
         d="M 540,458.836 H 505"
         style="fill:none;stroke:#000000;stroke-width:8;stroke-linecap:butt;stroke-linejoin:round;stroke-miterlimit:10;stroke-dasharray:none;stroke-opacity:1"
         id="path101"
         inkscape:export-filename="/home/hardik/Desktop/Research/Safe-Learning-DASC/Untitled Folder/paths_example1.png"
         inkscape:export-xdpi="96"
         inkscape:export-ydpi="96" />
      <g
         id="g103"
         transform="scale(10)"
         inkscape:export-filename="/home/hardik/Desktop/Research/Safe-Learning-DASC/Untitled Folder/paths_example1.png"
         inkscape:export-xdpi="96"
         inkscape:export-ydpi="96">
        <text
           transform="matrix(1,0,0,-1,31.0938,42.0867)"
           style="font-variant:normal;font-weight:normal;font-size:10px;font-family:Arial;-inkscape-font-specification:Arial;writing-mode:lr-tb;fill:#000000;fill-opacity:1;fill-rule:nonzero;stroke:none"
           id="text107"><tspan
             x="0 6.3624992 9.5410166"
             y="0"
             sodipodi:role="line"
             id="tspan105">0.0</tspan></text>
      </g>
      <path
         d="M 540,760.168 H 505"
         style="fill:#000000;fill-opacity:1;fill-rule:nonzero;stroke:none"
         id="path109"
         inkscape:export-filename="/home/hardik/Desktop/Research/Safe-Learning-DASC/Untitled Folder/paths_example1.png"
         inkscape:export-xdpi="96"
         inkscape:export-ydpi="96" />
      <path
         d="M 540,760.168 H 505"
         style="fill:none;stroke:#000000;stroke-width:8;stroke-linecap:butt;stroke-linejoin:round;stroke-miterlimit:10;stroke-dasharray:none;stroke-opacity:1"
         id="path111"
         inkscape:export-filename="/home/hardik/Desktop/Research/Safe-Learning-DASC/Untitled Folder/paths_example1.png"
         inkscape:export-xdpi="96"
         inkscape:export-ydpi="96" />
      <g
         id="g113"
         transform="scale(10)"
         inkscape:export-filename="/home/hardik/Desktop/Research/Safe-Learning-DASC/Untitled Folder/paths_example1.png"
         inkscape:export-xdpi="96"
         inkscape:export-ydpi="96">
        <text
           transform="matrix(1,0,0,-1,31.0938,72.2199)"
           style="font-variant:normal;font-weight:normal;font-size:10px;font-family:Arial;-inkscape-font-specification:Arial;writing-mode:lr-tb;fill:#000000;fill-opacity:1;fill-rule:nonzero;stroke:none"
           id="text117"><tspan
             x="0 6.3624992 9.5410166"
             y="0"
             sodipodi:role="line"
             id="tspan115">0.2</tspan></text>
      </g>
      <path
         d="M 540,1061.5 H 505"
         style="fill:#000000;fill-opacity:1;fill-rule:nonzero;stroke:none"
         id="path119"
         inkscape:export-filename="/home/hardik/Desktop/Research/Safe-Learning-DASC/Untitled Folder/paths_example1.png"
         inkscape:export-xdpi="96"
         inkscape:export-ydpi="96" />
      <path
         d="M 540,1061.5 H 505"
         style="fill:none;stroke:#000000;stroke-width:8;stroke-linecap:butt;stroke-linejoin:round;stroke-miterlimit:10;stroke-dasharray:none;stroke-opacity:1"
         id="path121"
         inkscape:export-filename="/home/hardik/Desktop/Research/Safe-Learning-DASC/Untitled Folder/paths_example1.png"
         inkscape:export-xdpi="96"
         inkscape:export-ydpi="96" />
      <g
         id="g123"
         transform="scale(10)"
         inkscape:export-filename="/home/hardik/Desktop/Research/Safe-Learning-DASC/Untitled Folder/paths_example1.png"
         inkscape:export-xdpi="96"
         inkscape:export-ydpi="96">
        <text
           transform="matrix(1,0,0,-1,31.0938,102.353)"
           style="font-variant:normal;font-weight:normal;font-size:10px;font-family:Arial;-inkscape-font-specification:Arial;writing-mode:lr-tb;fill:#000000;fill-opacity:1;fill-rule:nonzero;stroke:none"
           id="text127"><tspan
             x="0 6.3624992 9.5410166"
             y="0"
             sodipodi:role="line"
             id="tspan125">0.4</tspan></text>
      </g>
      <path
         d="M 540,1362.83 H 505"
         style="fill:#000000;fill-opacity:1;fill-rule:nonzero;stroke:none"
         id="path129"
         inkscape:export-filename="/home/hardik/Desktop/Research/Safe-Learning-DASC/Untitled Folder/paths_example1.png"
         inkscape:export-xdpi="96"
         inkscape:export-ydpi="96" />
      <path
         d="M 540,1362.83 H 505"
         style="fill:none;stroke:#000000;stroke-width:8;stroke-linecap:butt;stroke-linejoin:round;stroke-miterlimit:10;stroke-dasharray:none;stroke-opacity:1"
         id="path131"
         inkscape:export-filename="/home/hardik/Desktop/Research/Safe-Learning-DASC/Untitled Folder/paths_example1.png"
         inkscape:export-xdpi="96"
         inkscape:export-ydpi="96" />
      <g
         id="g133"
         transform="scale(10)"
         inkscape:export-filename="/home/hardik/Desktop/Research/Safe-Learning-DASC/Untitled Folder/paths_example1.png"
         inkscape:export-xdpi="96"
         inkscape:export-ydpi="96">
        <text
           transform="matrix(1,0,0,-1,31.0938,132.486)"
           style="font-variant:normal;font-weight:normal;font-size:10px;font-family:Arial;-inkscape-font-specification:Arial;writing-mode:lr-tb;fill:#000000;fill-opacity:1;fill-rule:nonzero;stroke:none"
           id="text137"><tspan
             x="0 6.3624992 9.5410166"
             y="0"
             sodipodi:role="line"
             id="tspan135">0.6</tspan></text>
      </g>
      <path
         d="M 540,1664.16 H 505"
         style="fill:#000000;fill-opacity:1;fill-rule:nonzero;stroke:none"
         id="path139"
         inkscape:export-filename="/home/hardik/Desktop/Research/Safe-Learning-DASC/Untitled Folder/paths_example1.png"
         inkscape:export-xdpi="96"
         inkscape:export-ydpi="96" />
      <path
         d="M 540,1664.16 H 505"
         style="fill:none;stroke:#000000;stroke-width:8;stroke-linecap:butt;stroke-linejoin:round;stroke-miterlimit:10;stroke-dasharray:none;stroke-opacity:1"
         id="path141"
         inkscape:export-filename="/home/hardik/Desktop/Research/Safe-Learning-DASC/Untitled Folder/paths_example1.png"
         inkscape:export-xdpi="96"
         inkscape:export-ydpi="96" />
      <g
         id="g143"
         transform="scale(10)"
         inkscape:export-filename="/home/hardik/Desktop/Research/Safe-Learning-DASC/Untitled Folder/paths_example1.png"
         inkscape:export-xdpi="96"
         inkscape:export-ydpi="96">
        <text
           transform="matrix(1,0,0,-1,31.0938,162.619)"
           style="font-variant:normal;font-weight:normal;font-size:10px;font-family:Arial;-inkscape-font-specification:Arial;writing-mode:lr-tb;fill:#000000;fill-opacity:1;fill-rule:nonzero;stroke:none"
           id="text147"><tspan
             x="0 6.3624992 9.5410166"
             y="0"
             sodipodi:role="line"
             id="tspan145">0.8</tspan></text>
      </g>
      <path
         d="M 540,1965.49 H 505"
         style="fill:#000000;fill-opacity:1;fill-rule:nonzero;stroke:none"
         id="path149"
         inkscape:export-filename="/home/hardik/Desktop/Research/Safe-Learning-DASC/Untitled Folder/paths_example1.png"
         inkscape:export-xdpi="96"
         inkscape:export-ydpi="96" />
      <path
         d="M 540,1965.49 H 505"
         style="fill:none;stroke:#000000;stroke-width:8;stroke-linecap:butt;stroke-linejoin:round;stroke-miterlimit:10;stroke-dasharray:none;stroke-opacity:1"
         id="path151"
         inkscape:export-filename="/home/hardik/Desktop/Research/Safe-Learning-DASC/Untitled Folder/paths_example1.png"
         inkscape:export-xdpi="96"
         inkscape:export-ydpi="96" />
      <g
         id="g153"
         transform="scale(10)"
         inkscape:export-filename="/home/hardik/Desktop/Research/Safe-Learning-DASC/Untitled Folder/paths_example1.png"
         inkscape:export-xdpi="96"
         inkscape:export-ydpi="96">
        <text
           transform="matrix(1,0,0,-1,31.0938,192.752)"
           style="font-variant:normal;font-weight:normal;font-size:10px;font-family:Arial;-inkscape-font-specification:Arial;writing-mode:lr-tb;fill:#000000;fill-opacity:1;fill-rule:nonzero;stroke:none"
           id="text157"><tspan
             x="0 6.3624992 9.5410166"
             y="0"
             sodipodi:role="line"
             id="tspan155">1.0</tspan></text>
      </g>
      <path
         d="M 540,2266.82 H 505"
         style="fill:#000000;fill-opacity:1;fill-rule:nonzero;stroke:none"
         id="path159"
         inkscape:export-filename="/home/hardik/Desktop/Research/Safe-Learning-DASC/Untitled Folder/paths_example1.png"
         inkscape:export-xdpi="96"
         inkscape:export-ydpi="96" />
      <path
         d="M 540,2266.82 H 505"
         style="fill:none;stroke:#000000;stroke-width:8;stroke-linecap:butt;stroke-linejoin:round;stroke-miterlimit:10;stroke-dasharray:none;stroke-opacity:1"
         id="path161"
         inkscape:export-filename="/home/hardik/Desktop/Research/Safe-Learning-DASC/Untitled Folder/paths_example1.png"
         inkscape:export-xdpi="96"
         inkscape:export-ydpi="96" />
      <g
         id="g163"
         transform="scale(10)"
         inkscape:export-filename="/home/hardik/Desktop/Research/Safe-Learning-DASC/Untitled Folder/paths_example1.png"
         inkscape:export-xdpi="96"
         inkscape:export-ydpi="96">
        <text
           transform="matrix(1,0,0,-1,31.0938,222.885)"
           style="font-variant:normal;font-weight:normal;font-size:10px;font-family:Arial;-inkscape-font-specification:Arial;writing-mode:lr-tb;fill:#000000;fill-opacity:1;fill-rule:nonzero;stroke:none"
           id="text167"><tspan
             x="0 6.3624992 9.5410166"
             y="0"
             sodipodi:role="line"
             id="tspan165">1.2</tspan></text>
        <text
           transform="matrix(0,1,1,0,25.0156,141.759)"
           style="font-variant:normal;font-weight:normal;font-size:10px;font-family:Arial;-inkscape-font-specification:Arial;writing-mode:lr-tb;fill:#000000;fill-opacity:1;fill-rule:nonzero;stroke:none"
           id="text171"><tspan
             x="0"
             y="0"
             id="tspan169">x</tspan></text>
      </g>
      <g
         id="g173"
         inkscape:export-filename="/home/hardik/Desktop/Research/Safe-Learning-DASC/Untitled Folder/paths_example1.png"
         inkscape:export-xdpi="96"
         inkscape:export-ydpi="96">
        <g
           id="g175"
           clip-path="url(#clipPath179)">
          <path
             d="m 692.184,1212.16 29.265,38.42 29.266,36.9 29.265,35.43 29.266,34.05 29.266,32.72 29.265,31.45 29.266,30.23 29.266,29.08 29.265,27.97 29.266,26.93 29.27,25.91 29.26,24.95 29.27,24.02 29.26,23.16 29.27,22.31 29.26,21.51 29.27,20.75 29.26,20.01 29.27,19.32 29.27,18.66 29.26,18.01 29.27,17.41 29.26,16.84 29.27,16.27 29.26,15.75 29.27,15.24 29.27,14.76 29.26,14.3 29.27,13.86 29.26,13.44 29.27,13.03 29.26,12.66 29.27,12.28 29.27,11.94 29.26,11.61 29.27,11.29 29.27,10.98 29.26,10.69 29.27,10.41 29.26,10.15 29.27,9.89 29.26,9.65 29.27,9.42 29.27,9.2 29.26,9 29.27,8.78 29.26,8.6 29.27,8.42 29.26,8.23 29.27,8.08 29.26,7.91 29.27,7.75 29.27,7.62 29.26,7.47 29.27,7.34 29.26,7.21 29.27,7.1 29.26,6.97 29.27,6.87 29.27,6.76 29.26,6.66 29.27,6.57 29.26,6.47 29.27,6.38 29.26,6.3 29.27,6.22 29.26,6.15 29.27,6.07 29.27,6 29.27,5.93 29.26,5.87 29.27,5.81 29.26,5.75 29.27,5.69 29.26,5.65 29.27,5.59 29.26,5.55 29.27,5.5 29.27,5.45 29.26,5.41 29.27,5.37 29.26,5.34 29.27,5.29 29.26,5.26 29.27,5.23 29.27,5.2 29.26,5.17 29.27,5.13 29.26,5.11 29.27,5.09 29.26,5.05 29.27,5.04 29.26,5.01 29.27,4.99 29.27,4.96 29.26,4.95 29.27,4.93 29.26,4.91 29.27,4.89 29.26,4.88 29.27,4.85 29.27,4.85 29.26,4.83 29.27,4.81"
             style="fill:none;stroke:#1f77b4;stroke-width:15;stroke-linecap:square;stroke-linejoin:round;stroke-miterlimit:10;stroke-dasharray:none;stroke-opacity:1"
             id="path181" />
          <path
             d="m 692.184,1212.16 29.265,15.82 29.266,15.65 29.265,15.49 29.266,15.31 29.266,15.16 29.265,15 29.266,14.84 29.266,14.68 29.265,14.54 29.266,14.38 29.27,14.24 29.26,14.09 29.27,13.94 29.26,13.81 29.27,13.66 29.26,13.53 29.27,13.39 29.26,13.26 29.27,13.13 29.27,13 29.26,12.87 29.27,12.75 29.26,12.62 29.27,12.5 29.26,12.38 29.27,12.27 29.27,12.15 29.26,12.03 29.27,11.92 29.26,11.81 29.27,11.7 29.26,11.59"
             style="fill:none;stroke:#ff7f0e;stroke-width:15;stroke-linecap:square;stroke-linejoin:round;stroke-miterlimit:10;stroke-dasharray:none;stroke-opacity:1"
             id="path183" />
          <path
             d="m 692.184,1212.16 29.265,27.12 29.266,26.44 29.265,25.79 29.266,25.14 29.266,24.53 29.265,23.93 29.266,23.34 29.266,22.78 29.265,22.23 29.266,21.71 29.27,21.18 29.26,20.69 29.27,20.2 29.26,19.73 29.27,19.27 29.26,18.83 29.27,18.41 29.26,17.98 29.27,17.58 29.27,17.19 29.26,16.81 29.27,16.44 29.26,16.09 29.27,15.73 29.26,15.4 29.27,15.08 29.27,14.76 29.26,14.44 29.27,14.16 29.26,13.86 29.27,13.58 29.26,13.31 29.27,13.05 29.27,12.79 29.26,12.54 29.27,12.3 29.27,12.07 29.26,11.85 29.27,11.62 29.26,11.41 29.27,11.2 29.26,11 29.27,10.81 29.27,10.62 29.26,10.44 29.27,10.26 29.26,10.08 29.27,9.92 29.26,9.76 29.27,9.6 29.26,9.45 29.27,9.3 29.27,9.16 29.26,9.02 29.27,8.88 29.26,8.75 29.27,8.62 29.26,8.51 29.27,8.38 29.27,8.27 29.26,8.15 29.27,8.05 29.26,7.93 29.27,7.84"
             style="fill:none;stroke:#2ca02c;stroke-width:15;stroke-linecap:square;stroke-linejoin:round;stroke-miterlimit:10;stroke-dasharray:none;stroke-opacity:1"
             id="path185" />
          <path
             d="m 692.184,1212.16 29.265,12.05 29.266,11.99 29.265,11.9 29.266,11.83 29.266,11.75 29.265,11.69 29.266,11.61 29.266,11.54 29.265,11.47 29.266,11.4 29.27,11.34 29.26,11.26 29.27,11.2 29.26,11.13 29.27,11.06 29.26,11 29.27,10.94 29.26,10.87 29.27,10.8 29.27,10.75 29.26,10.68 29.27,10.62 29.26,10.56 29.27,10.49 29.26,10.45 29.27,10.37 29.27,10.32 29.26,10.27 29.27,10.2 29.26,10.15 29.27,10.1 29.26,10.03 29.27,9.98 29.27,9.93 29.26,9.87 29.27,9.82 29.27,9.77 29.26,9.71 29.27,9.66 29.26,9.61 29.27,9.56 29.26,9.51 29.27,9.46 29.27,9.41 29.26,9.36 29.27,9.32 29.26,9.26 29.27,9.22 29.26,9.16 29.27,9.13 29.26,9.08 29.27,9.03 29.27,8.99 29.26,8.94 29.27,8.9 29.26,8.85 29.27,8.81 29.26,8.77 29.27,8.73 29.27,8.68 29.26,8.64 29.27,8.6 29.26,8.56 29.27,8.52 29.26,8.48 29.27,8.44 29.26,8.4 29.27,8.36 29.27,8.32 29.27,8.29 29.26,8.25 29.27,8.21 29.26,8.17 29.27,8.14 29.26,8.1 29.27,8.06 29.26,8.03 29.27,8 29.27,7.96 29.26,7.92 29.27,7.89 29.26,7.86 29.27,7.83 29.26,7.79 29.27,7.76 29.27,7.72 29.26,7.7 29.27,7.66 29.26,7.63 29.27,7.6 29.26,7.57 29.27,7.54 29.26,7.5 29.27,7.48 29.27,7.45 29.26,7.42 29.27,7.39 29.26,7.37"
             style="fill:none;stroke:#d62728;stroke-width:15;stroke-linecap:square;stroke-linejoin:round;stroke-miterlimit:10;stroke-dasharray:none;stroke-opacity:1"
             id="path187" />
          <path
             d="m 692.184,609.5 29.265,18.082 29.266,17.945 29.265,17.809 29.266,17.676 29.266,17.547 29.265,17.414 29.266,17.289 29.266,17.156 29.265,17.031 29.266,16.91 29.27,16.782 29.26,16.66 29.27,16.539 29.26,16.422 29.27,16.297 29.26,16.183 29.27,16.067 29.26,15.949 29.27,15.836 29.27,15.722 29.26,15.61 29.27,15.5 29.26,15.39 29.27,15.284 29.26,15.17 29.27,15.07 29.27,14.96 29.26,14.86 29.27,14.75 29.26,14.65 29.27,14.55 29.26,14.45 29.27,14.35 29.27,14.26 29.26,14.15 29.27,14.06 29.27,13.96 29.26,13.87 29.27,13.78 29.26,13.68 29.27,13.59 29.26,13.5 29.27,13.41 29.27,13.32 29.26,13.24 29.27,13.15 29.26,13.05 29.27,12.98 29.26,12.89 29.27,12.81 29.26,12.72 29.27,12.64 29.27,12.56 29.26,12.48 29.27,12.4 29.26,12.32 29.27,12.25 29.26,12.16 29.27,12.09 29.27,12.02 29.26,11.94 29.27,11.86 29.26,11.79 29.27,11.72 29.26,11.65 29.27,11.58 29.26,11.5 29.27,11.44 29.27,11.36 29.27,11.3 29.26,11.23 29.27,11.17 29.26,11.09 29.27,11.03 29.26,10.97 29.27,10.9 29.26,10.83 29.27,10.78 29.27,10.71 29.26,10.65 29.27,10.59 29.26,10.52 29.27,10.47 29.26,10.41 29.27,10.35 29.27,10.29 29.26,10.23"
             style="fill:none;stroke:#9467bd;stroke-width:15;stroke-linecap:square;stroke-linejoin:round;stroke-miterlimit:10;stroke-dasharray:none;stroke-opacity:1"
             id="path189" />
          <path
             d="m 692.184,609.5 29.265,65.539 29.266,62.797 29.265,60.168 29.266,57.668 29.266,55.277 29.265,52.989 29.266,50.812 29.266,48.73 29.265,46.73 29.266,44.84 29.27,43.02 29.26,41.3 29.27,39.63 29.26,38.06 29.27,36.55 29.26,35.1 29.27,33.73 29.26,32.42 29.27,31.16 29.27,29.96 29.26,28.81 29.27,27.73 29.26,26.67 29.27,25.69 29.26,24.72 29.27,23.82 29.27,22.96 29.26,22.12 29.27,21.32 29.26,20.58 29.27,19.85 29.26,19.16 29.27,18.5 29.27,17.88 29.26,17.27 29.27,16.7 29.27,16.15 29.26,15.63 29.27,15.12 29.26,14.65 29.27,14.19 29.26,13.76 29.27,13.35 29.27,12.94 29.26,12.57 29.27,12.2 29.26,11.86 29.27,11.53 29.26,11.21 29.27,10.92 29.26,10.62 29.27,10.35 29.27,10.08 29.26,9.84 29.27,9.6 29.26,9.37 29.27,9.15 29.26,8.94 29.27,8.75 29.27,8.55 29.26,8.37 29.27,8.2 29.26,8.03 29.27,7.88 29.26,7.72 29.27,7.58 29.26,7.44 29.27,7.32 29.27,7.18 29.27,7.07 29.26,6.94 29.27,6.84 29.26,6.74 29.27,6.64 29.26,6.54 29.27,6.45 29.26,6.36 29.27,6.29 29.27,6.2 29.26,6.12 29.27,6.05 29.26,5.99 29.27,5.92 29.26,5.86 29.27,5.79 29.27,5.74 29.26,5.68 29.27,5.63 29.26,5.59 29.27,5.53 29.26,5.49 29.27,5.44 29.26,5.4 29.27,5.37 29.27,5.32 29.26,5.29 29.27,5.25 29.26,5.23 29.27,5.18 29.26,5.16 29.27,5.13 29.27,5.11 29.26,5.07 29.27,5.06"
             style="fill:none;stroke:#8c564b;stroke-width:15;stroke-linecap:square;stroke-linejoin:round;stroke-miterlimit:10;stroke-dasharray:none;stroke-opacity:1"
             id="path191" />
          <path
             d="M 540,458.836 H 3888"
             style="fill:none;stroke:#000000;stroke-width:15;stroke-linecap:square;stroke-linejoin:round;stroke-miterlimit:10;stroke-dasharray:none;stroke-opacity:1"
             id="path193" />
          <path
             d="M 692.184,360 V 2534.4"
             style="fill:none;stroke:#000000;stroke-width:15;stroke-linecap:square;stroke-linejoin:round;stroke-miterlimit:10;stroke-dasharray:none;stroke-opacity:1"
             id="path195" />
          <path
             d="m 692.184,458.836 104.953,54.031 104.949,54.031 104.954,54.032 104.95,54.035 104.96,54.031 104.95,54.031 104.95,54.032 104.95,54.031 104.96,54.031 104.95,54.031 104.95,54.028 104.96,54.03 104.95,54.04 104.95,54.03 104.96,54.03 104.95,54.03 104.95,54.04 104.96,54.03 104.95,54.03 104.95,54.03 104.96,54.03 104.95,54.03 104.95,54.03 104.95,54.04 104.96,54.03 104.95,54.03 104.95,54.03 104.96,54.03 104.95,54.03"
             style="fill:none;stroke:#000000;stroke-width:15;stroke-linecap:butt;stroke-linejoin:round;stroke-miterlimit:10;stroke-dasharray:55.5, 24;stroke-dashoffset:0;stroke-opacity:1"
             id="path197" />
          <path
             d="m 692.184,1965.49 104.953,16.21 104.949,16.21 104.954,16.21 104.95,16.21 104.96,16.21 104.95,16.21 104.95,16.2 104.95,16.21 104.96,16.22 104.95,16.2 104.95,16.21 104.96,16.21 104.95,16.21 104.95,16.21 104.96,16.21 104.95,16.21 104.95,16.21 104.96,16.21 104.95,16.21 104.95,16.21 104.96,16.21 104.95,16.21 104.95,16.21 104.95,16.21 104.96,16.21 104.95,16.2 104.95,16.21 104.96,16.22 104.95,16.2"
             style="fill:none;stroke:#000000;stroke-width:15;stroke-linecap:butt;stroke-linejoin:round;stroke-miterlimit:10;stroke-dasharray:55.5, 24;stroke-dashoffset:0;stroke-opacity:1"
             id="path199" />
        </g>
      </g>
      <path
         d="M 540,360 V 2534.4"
         style="fill:none;stroke:#000000;stroke-width:8;stroke-linecap:square;stroke-linejoin:miter;stroke-miterlimit:10;stroke-dasharray:none;stroke-opacity:1"
         id="path201"
         inkscape:export-filename="/home/hardik/Desktop/Research/Safe-Learning-DASC/Untitled Folder/paths_example1.png"
         inkscape:export-xdpi="96"
         inkscape:export-ydpi="96" />
      <path
         d="M 3888,360 V 2534.4"
         style="fill:none;stroke:#000000;stroke-width:8;stroke-linecap:square;stroke-linejoin:miter;stroke-miterlimit:10;stroke-dasharray:none;stroke-opacity:1"
         id="path203"
         inkscape:export-filename="/home/hardik/Desktop/Research/Safe-Learning-DASC/Untitled Folder/paths_example1.png"
         inkscape:export-xdpi="96"
         inkscape:export-ydpi="96" />
      <path
         d="M 540,360 H 3888"
         style="fill:none;stroke:#000000;stroke-width:8;stroke-linecap:square;stroke-linejoin:miter;stroke-miterlimit:10;stroke-dasharray:none;stroke-opacity:1"
         id="path205"
         inkscape:export-filename="/home/hardik/Desktop/Research/Safe-Learning-DASC/Untitled Folder/paths_example1.png"
         inkscape:export-xdpi="96"
         inkscape:export-ydpi="96" />
      <path
         d="M 540,2534.4 H 3888"
         style="fill:none;stroke:#000000;stroke-width:8;stroke-linecap:square;stroke-linejoin:miter;stroke-miterlimit:10;stroke-dasharray:none;stroke-opacity:1"
         id="path207"
         inkscape:export-filename="/home/hardik/Desktop/Research/Safe-Learning-DASC/Untitled Folder/paths_example1.png"
         inkscape:export-xdpi="96"
         inkscape:export-ydpi="96" />
      <path
         d="M 2792.22,530 H 3818 c 13.33,0 20,6.668 20,20 v 870.31 c 0,13.33 -6.67,20 -20,20 H 2792.22 c -13.33,0 -20,-6.67 -20,-20 V 550 c 0,-13.332 6.67,-20 20,-20"
         style="fill:#ffffff;fill-opacity:1;fill-rule:nonzero;stroke:none"
         id="path209"
         inkscape:export-filename="/home/hardik/Desktop/Research/Safe-Learning-DASC/Untitled Folder/paths_example1.png"
         inkscape:export-xdpi="96"
         inkscape:export-ydpi="96" />
      <path
         d="M 2792.22,530 H 3818 c 13.33,0 20,6.668 20,20 v 870.31 c 0,13.33 -6.67,20 -20,20 H 2792.22 c -13.33,0 -20,-6.67 -20,-20 V 550 c 0,-13.332 6.67,-20 20,-20 z"
         style="fill:none;stroke:#cccccc;stroke-width:10;stroke-linecap:butt;stroke-linejoin:miter;stroke-miterlimit:10;stroke-dasharray:none;stroke-opacity:1"
         id="path211"
         inkscape:export-filename="/home/hardik/Desktop/Research/Safe-Learning-DASC/Untitled Folder/paths_example1.png"
         inkscape:export-xdpi="96"
         inkscape:export-ydpi="96" />
      <path
         d="m 2812.22,1359.38 h 200"
         style="fill:none;stroke:#1f77b4;stroke-width:15;stroke-linecap:square;stroke-linejoin:round;stroke-miterlimit:10;stroke-dasharray:none;stroke-opacity:1"
         id="path213"
         inkscape:export-filename="/home/hardik/Desktop/Research/Safe-Learning-DASC/Untitled Folder/paths_example1.png"
         inkscape:export-xdpi="96"
         inkscape:export-ydpi="96" />
      <g
         id="g215"
         transform="matrix(10,0,0,10,0,119.99999)"
         inkscape:export-filename="/home/hardik/Desktop/Research/Safe-Learning-DASC/Untitled Folder/paths_example1.png"
         inkscape:export-xdpi="96"
         inkscape:export-ydpi="96">
        <text
           transform="matrix(1,0,0,-1,309.222,120.438)"
           style="font-variant:normal;font-weight:normal;font-size:10px;font-family:Arial;-inkscape-font-specification:Arial;writing-mode:lr-tb;fill:#000000;fill-opacity:1;fill-rule:nonzero;stroke:none"
           id="text219"><tspan
             x="0 6.1281199 14.507022 20.869122 24.048023 30.410122 33.589024 39.93668 48.315582 54.677681 57.856583"
             y="0"
             sodipodi:role="line"
             id="tspan217">a=2.5,b=4.5</tspan></text>
      </g>
      <path
         d="m 2812.22,1212.66 h 200"
         style="fill:none;stroke:#ff7f0e;stroke-width:15;stroke-linecap:square;stroke-linejoin:round;stroke-miterlimit:10;stroke-dasharray:none;stroke-opacity:1"
         id="path221"
         inkscape:export-filename="/home/hardik/Desktop/Research/Safe-Learning-DASC/Untitled Folder/paths_example1.png"
         inkscape:export-xdpi="96"
         inkscape:export-ydpi="96" />
      <g
         id="g223"
         transform="matrix(10,0,0,10,0,119.99999)"
         inkscape:export-filename="/home/hardik/Desktop/Research/Safe-Learning-DASC/Untitled Folder/paths_example1.png"
         inkscape:export-xdpi="96"
         inkscape:export-ydpi="96">
        <text
           transform="matrix(1,0,0,-1,309.222,105.766)"
           style="font-variant:normal;font-weight:normal;font-size:10px;font-family:Arial;-inkscape-font-specification:Arial;writing-mode:lr-tb;fill:#000000;fill-opacity:1;fill-rule:nonzero;stroke:none"
           id="text227"><tspan
             x="0 6.1281199 14.507022 20.869122 24.048023 30.410122 33.589024 39.93668 48.315582 54.677681 57.856583"
             y="0"
             sodipodi:role="line"
             id="tspan225">a=0.5,b=1.5</tspan></text>
      </g>
      <path
         d="m 2812.22,1065.938 h 200"
         style="fill:none;stroke:#2ca02c;stroke-width:15;stroke-linecap:square;stroke-linejoin:round;stroke-miterlimit:10;stroke-dasharray:none;stroke-opacity:1"
         id="path229"
         inkscape:export-filename="/home/hardik/Desktop/Research/Safe-Learning-DASC/Untitled Folder/paths_example1.png"
         inkscape:export-xdpi="96"
         inkscape:export-ydpi="96" />
      <g
         id="g231"
         transform="matrix(10,0,0,10,0,119.99999)"
         inkscape:export-filename="/home/hardik/Desktop/Research/Safe-Learning-DASC/Untitled Folder/paths_example1.png"
         inkscape:export-xdpi="96"
         inkscape:export-ydpi="96">
        <text
           transform="matrix(1,0,0,-1,309.222,91.0938)"
           style="font-variant:normal;font-weight:normal;font-size:10px;font-family:Arial;-inkscape-font-specification:Arial;writing-mode:lr-tb;fill:#000000;fill-opacity:1;fill-rule:nonzero;stroke:none"
           id="text235"><tspan
             x="0 6.1281199 14.507022 20.869122 24.048023 30.410122 33.589024 39.93668 48.315582 54.677681 57.856583"
             y="0"
             sodipodi:role="line"
             id="tspan233">a=1.0,b=3.0</tspan></text>
      </g>
      <path
         d="m 2812.22,919.219 h 200"
         style="fill:none;stroke:#d62728;stroke-width:15;stroke-linecap:square;stroke-linejoin:round;stroke-miterlimit:10;stroke-dasharray:none;stroke-opacity:1"
         id="path237"
         inkscape:export-filename="/home/hardik/Desktop/Research/Safe-Learning-DASC/Untitled Folder/paths_example1.png"
         inkscape:export-xdpi="96"
         inkscape:export-ydpi="96" />
      <g
         id="g239"
         transform="matrix(10,0,0,10,0,119.99999)"
         inkscape:export-filename="/home/hardik/Desktop/Research/Safe-Learning-DASC/Untitled Folder/paths_example1.png"
         inkscape:export-xdpi="96"
         inkscape:export-ydpi="96">
        <text
           transform="matrix(1,0,0,-1,309.222,76.4219)"
           style="font-variant:normal;font-weight:normal;font-size:10px;font-family:Arial;-inkscape-font-specification:Arial;writing-mode:lr-tb;fill:#000000;fill-opacity:1;fill-rule:nonzero;stroke:none"
           id="text243"><tspan
             x="0 6.1281199 14.507022 20.869122 24.048023 30.410122 33.589024 39.93668 48.315582 54.677681 57.856583"
             y="0"
             sodipodi:role="line"
             id="tspan241">a=3.0,b=1.0</tspan></text>
      </g>
      <path
         d="m 2812.22,772.5 h 200"
         style="fill:none;stroke:#9467bd;stroke-width:15;stroke-linecap:square;stroke-linejoin:round;stroke-miterlimit:10;stroke-dasharray:none;stroke-opacity:1"
         id="path245"
         inkscape:export-filename="/home/hardik/Desktop/Research/Safe-Learning-DASC/Untitled Folder/paths_example1.png"
         inkscape:export-xdpi="96"
         inkscape:export-ydpi="96" />
      <g
         id="g247"
         transform="matrix(10,0,0,10,0,119.99999)"
         inkscape:export-filename="/home/hardik/Desktop/Research/Safe-Learning-DASC/Untitled Folder/paths_example1.png"
         inkscape:export-xdpi="96"
         inkscape:export-ydpi="96">
        <text
           transform="matrix(1,0,0,-1,309.222,61.75)"
           style="font-variant:normal;font-weight:normal;font-size:10px;font-family:Arial;-inkscape-font-specification:Arial;writing-mode:lr-tb;fill:#000000;fill-opacity:1;fill-rule:nonzero;stroke:none"
           id="text251"><tspan
             x="0 6.1281199 14.507022 20.869122 27.231611 30.410122 36.772614 39.951122 46.298779 54.677681 61.040173 64.218681"
             y="0"
             sodipodi:role="line"
             id="tspan249">a=20.4,b=1.0</tspan></text>
      </g>
      <path
         d="m 2812.22,625.781 h 200"
         style="fill:none;stroke:#8c564b;stroke-width:15;stroke-linecap:square;stroke-linejoin:round;stroke-miterlimit:10;stroke-dasharray:none;stroke-opacity:1"
         id="path253"
         inkscape:export-filename="/home/hardik/Desktop/Research/Safe-Learning-DASC/Untitled Folder/paths_example1.png"
         inkscape:export-xdpi="96"
         inkscape:export-ydpi="96" />
      <g
         id="g255"
         transform="matrix(10,0,0,10,0,119.99999)"
         inkscape:export-filename="/home/hardik/Desktop/Research/Safe-Learning-DASC/Untitled Folder/paths_example1.png"
         inkscape:export-xdpi="96"
         inkscape:export-ydpi="96">
        <text
           transform="matrix(1,0,0,-1,309.222,47.0781)"
           style="font-variant:normal;font-weight:normal;font-size:10px;font-family:Arial;-inkscape-font-specification:Arial;writing-mode:lr-tb;fill:#000000;fill-opacity:1;fill-rule:nonzero;stroke:none"
           id="text259"><tspan
             x="0 6.1281199 14.507022 20.869122 24.048023 30.410122 33.589024 39.93668 48.315582 54.677681 57.856583"
             y="0"
             sodipodi:role="line"
             id="tspan257">a=2.5,b=4.5</tspan></text>
      </g>
    </g>
  </g>
</svg>
